<?xml version="1.0" encoding="UTF-8"?>
<svg xmlns="http://www.w3.org/2000/svg" xmlns:xlink="http://www.w3.org/1999/xlink" width="16px" height="13px" viewBox="0 0 16 13" version="1.1">
<g id="surface1">
<path style=" stroke:none;fill-rule:nonzero;fill:#000000;fill-opacity:1;" d="M 15.261719 9.476562 C 15.328125 9.121094 15.328125 8.753906 15.261719 8.398438 L 15.90625 8.019531 C 15.984375 7.976562 16.015625 7.886719 15.988281 7.800781 C 15.824219 7.253906 15.535156 6.757812 15.160156 6.34375 C 15.101562 6.28125 15.011719 6.265625 14.933594 6.308594 L 14.289062 6.6875 C 14.015625 6.453125 13.703125 6.269531 13.367188 6.148438 L 13.367188 5.390625 C 13.367188 5.304688 13.308594 5.226562 13.226562 5.210938 C 12.667969 5.082031 12.101562 5.089844 11.570312 5.210938 C 11.488281 5.226562 11.425781 5.304688 11.425781 5.390625 L 11.425781 6.148438 C 11.089844 6.269531 10.777344 6.453125 10.503906 6.6875 L 9.859375 6.308594 C 9.789062 6.265625 9.691406 6.28125 9.636719 6.34375 C 9.261719 6.757812 8.972656 7.253906 8.804688 7.800781 C 8.78125 7.886719 8.816406 7.976562 8.886719 8.019531 L 9.53125 8.398438 C 9.46875 8.753906 9.46875 9.121094 9.53125 9.476562 L 8.886719 9.855469 C 8.8125 9.898438 8.78125 9.988281 8.804688 10.074219 C 8.972656 10.621094 9.261719 11.117188 9.636719 11.53125 C 9.691406 11.59375 9.785156 11.609375 9.859375 11.566406 L 10.503906 11.1875 C 10.777344 11.421875 11.089844 11.605469 11.425781 11.726562 L 11.425781 12.484375 C 11.425781 12.570312 11.488281 12.648438 11.570312 12.664062 C 12.128906 12.792969 12.695312 12.785156 13.226562 12.664062 C 13.308594 12.648438 13.367188 12.570312 13.367188 12.484375 L 13.367188 11.726562 C 13.703125 11.605469 14.015625 11.421875 14.289062 11.1875 L 14.933594 11.566406 C 15.007812 11.609375 15.101562 11.59375 15.160156 11.53125 C 15.535156 11.117188 15.824219 10.621094 15.988281 10.074219 C 16.015625 9.988281 15.980469 9.898438 15.90625 9.855469 Z M 12.398438 10.167969 C 11.730469 10.167969 11.1875 9.617188 11.1875 8.9375 C 11.1875 8.257812 11.734375 7.707031 12.398438 7.707031 C 13.066406 7.707031 13.613281 8.257812 13.613281 8.9375 C 13.613281 9.617188 13.070312 10.167969 12.398438 10.167969 Z M 5.601562 6.5 C 7.367188 6.5 8.800781 5.046875 8.800781 3.25 C 8.800781 1.453125 7.367188 0 5.601562 0 C 3.832031 0 2.398438 1.453125 2.398438 3.25 C 2.398438 5.046875 3.832031 6.5 5.601562 6.5 Z M 10.628906 12.25 C 10.574219 12.21875 10.515625 12.183594 10.460938 12.152344 L 10.261719 12.269531 C 10.113281 12.355469 9.941406 12.402344 9.773438 12.402344 C 9.5 12.402344 9.238281 12.285156 9.050781 12.082031 C 8.59375 11.582031 8.242188 10.96875 8.046875 10.316406 C 7.90625 9.867188 8.09375 9.390625 8.492188 9.15625 L 8.691406 9.039062 C 8.6875 8.972656 8.6875 8.90625 8.691406 8.839844 L 8.492188 8.722656 C 8.09375 8.492188 7.90625 8.011719 8.046875 7.5625 C 8.066406 7.492188 8.101562 7.417969 8.125 7.34375 C 8.03125 7.335938 7.9375 7.3125 7.839844 7.3125 L 7.421875 7.3125 C 6.867188 7.570312 6.25 7.71875 5.601562 7.71875 C 4.949219 7.71875 4.335938 7.570312 3.777344 7.3125 L 3.359375 7.3125 C 1.503906 7.3125 0 8.839844 0 10.726562 L 0 11.78125 C 0 12.453125 0.539062 13 1.199219 13 L 10 13 C 10.253906 13 10.488281 12.917969 10.679688 12.785156 C 10.648438 12.6875 10.628906 12.589844 10.628906 12.484375 Z M 10.628906 12.25 "/>
</g>
</svg>
